<svg id="ReadWhite" xmlns="http://www.w3.org/2000/svg" viewBox="0 0 918 240">
  <title>Barrapretal</title>
  <g>
    <path d="M523,559a115,115,0,0,1,0-230h678a115,115,0,0,1,0,230Z" transform="translate(-403 -324)" fill="#212121"/>
    <path d="M1201,334a110,110,0,0,1,0,220H523a110,110,0,0,1,0-220h678m0-10H523A120,120,0,0,0,403,444h0A120,120,0,0,0,523,564h678a120,120,0,0,0,120-120h0a120,120,0,0,0-120-120Z" transform="translate(-403 -324)" fill="#fff"/>
  </g>
  <text transform="translate(157.05 168.1)" font-size="132" fill="#fff" font-family="EkMukta-ExtraLight, Ek Mukta" font-weight="200">Read</text>
  <g>
    <path d="M1107.16,455.65c-1.59,1.47-3.07,2.81-4.5,4.19-3.58,3.49-7.14,7-10.72,10.5a4.79,4.79,0,0,1-.47.43,11.91,11.91,0,0,0-4.91,8c-.45,3.32,0,6.43,2.47,9a15.45,15.45,0,0,0,4.14,3.31,13,13,0,0,0,14.9-2.29c4.08-3.79,8-7.71,12-11.57l5.93-5.72L1138,460l5.86-5.65c2.89-2.81,5.79-5.62,8.66-8.45,1.5-1.48,1.52-2.69,0-4.13-2-1.95-4.1-3.85-6.16-5.76l-8.54-7.89c-2.67-2.46-5.36-4.89-8-7.37q-7.36-6.9-14.7-13.84c-1.76-1.66-3.44-3.43-5.27-5a29.59,29.59,0,0,0-5.59-4.39,13.09,13.09,0,0,0-15.68,2.8,11.43,11.43,0,0,0-2.73,9.19,8,8,0,0,0,1.93,4.88q2.19,2.25,4.43,4.44c2.32,2.27,4.63,4.56,7,6.78,1.65,1.54,3.42,3,5.1,4.49.87.8,1.68,1.67,2.51,2.5l-.15.43c-4,0-8.05,0-12.08,0-9.4.06-18.8.15-28.21.21-5.37,0-10.74,0-16.1,0a11.76,11.76,0,0,0-8.54,3.82,11,11,0,0,0,1,16,13.46,13.46,0,0,0,2.74,1.82,13.69,13.69,0,0,0,6.14,1l44.32-.21h.32l.43,0Z" transform="translate(-403 -324)" fill="#fff"/>
    <path d="M1107.16,455.65h-10.5l-.43,0h-.32l-44.32.21a13.69,13.69,0,0,1-6.14-1,13.46,13.46,0,0,1-2.74-1.82,11,11,0,0,1-1-16,11.76,11.76,0,0,1,8.54-3.82c5.36,0,10.73,0,16.1,0,9.41-.06,18.81-.15,28.21-.21,4,0,8.05,0,12.08,0l.15-.43c-.83-.83-1.64-1.7-2.51-2.5-1.68-1.52-3.45-2.95-5.1-4.49-2.38-2.22-4.69-4.51-7-6.78q-2.24-2.19-4.43-4.44a8,8,0,0,1-1.93-4.88,11.43,11.43,0,0,1,2.73-9.19,13.09,13.09,0,0,1,15.68-2.8,29.59,29.59,0,0,1,5.59,4.39c1.83,1.58,3.51,3.35,5.27,5q7.35,6.93,14.7,13.84c2.65,2.48,5.34,4.91,8,7.37l8.54,7.89c2.06,1.91,4.14,3.81,6.16,5.76,1.51,1.44,1.49,2.65,0,4.13-2.87,2.83-5.77,5.64-8.66,8.45L1138,460,1126,471.5l-5.93,5.72c-4,3.86-8,7.78-12,11.57a13,13,0,0,1-14.9,2.29,15.45,15.45,0,0,1-4.14-3.31c-2.52-2.57-2.92-5.68-2.47-9a11.91,11.91,0,0,1,4.91-8,4.79,4.79,0,0,0,.47-.43c3.58-3.5,7.14-7,10.72-10.5C1104.09,458.46,1105.57,457.12,1107.16,455.65Z" transform="translate(-403 -324)" fill="#fff"/>
  </g>
</svg>
