<!DOCTYPE svg PUBLIC "-//W3C//DTD SVG 20010904//EN" "http://www.w3.org/TR/2001/REC-SVG-20010904/DTD/svg10.dtd">
<svg version="1.0" xmlns="http://www.w3.org/2000/svg" width="1199px" height="1200px" viewBox="0 0 11990 12000" preserveAspectRatio="xMidYMid meet">
<g id="layer101" fill="#0066aa" stroke="none">
 <path d="M1955 7699 c-181 -16 -431 -94 -610 -189 -471 -251 -813 -738 -886 -1260 -17 -122 -17 -378 0 -500 15 -109 66 -296 106 -390 231 -549 679 -919 1260 -1042 l110 -23 4065 0 4065 0 115 27 c519 121 910 417 1164 879 87 159 166 417 185 608 51 492 -98 955 -426 1326 -241 273 -537 445 -933 542 l-115 28 -4005 1 c-2203 1 -4045 -2 -4095 -7z"/>
 </g>
<g id="layer102" fill="#fbfcfd" stroke="none">
 <path d="M1955 7699 c-181 -16 -431 -94 -610 -189 -471 -251 -813 -738 -886 -1260 -17 -122 -17 -378 0 -500 15 -109 66 -296 106 -390 231 -549 679 -919 1260 -1042 l110 -23 4065 0 4065 0 115 27 c519 121 910 417 1164 879 87 159 166 417 185 608 51 492 -98 955 -426 1326 -241 273 -537 445 -933 542 l-115 28 -4005 1 c-2203 1 -4045 -2 -4095 -7z m8158 -77 c600 -116 1074 -521 1270 -1088 67 -191 82 -292 82 -534 0 -188 -3 -229 -24 -324 -108 -507 -424 -919 -876 -1145 -199 -100 -382 -151 -614 -171 -78 -7 -1393 -10 -4041 -7 l-3925 3 -115 22 c-684 133 -1189 628 -1332 1307 -20 95 -23 139 -23 315 0 176 3 220 23 315 156 740 752 1266 1502 1328 25 2 1825 3 4000 3 l3955 -1 118 -23z"/>
 <path d="M8247 6506 c-46 -17 -64 -32 -83 -67 -17 -33 -18 -102 -3 -132 6 -12 61 -73 122 -134 l112 -113 -351 0 c-348 0 -351 0 -385 -23 -19 -12 -43 -40 -53 -61 -17 -35 -18 -45 -7 -85 14 -53 30 -74 76 -95 28 -14 85 -16 376 -16 l344 0 -112 -112 c-61 -62 -116 -123 -122 -135 -18 -35 -13 -102 10 -140 30 -48 71 -66 136 -61 l55 5 284 284 c156 156 284 291 284 301 0 9 -126 143 -280 297 -224 223 -288 282 -318 291 -44 12 -38 12 -85 -4z"/>
 <path d="M3435 6457 c-115 -30 -200 -99 -247 -203 -34 -75 -38 -245 -8 -333 52 -156 171 -241 336 -241 182 0 298 116 311 311 l6 79 -277 0 -276 0 0 38 c0 56 27 136 56 172 14 17 47 43 73 58 43 25 53 27 156 26 72 0 124 -6 152 -16 l42 -15 10 30 c20 56 16 63 -51 82 -81 23 -218 28 -283 12z m270 -509 c-13 -74 -53 -136 -107 -164 -31 -16 -134 -19 -171 -5 -63 24 -122 101 -141 184 l-6 27 216 0 216 0 -7 -42z"/>
 <path d="M4124 6461 c-53 -14 -113 -53 -141 -94 -32 -46 -43 -142 -23 -202 18 -53 72 -109 133 -136 45 -20 71 -24 200 -27 l147 -4 0 -61 c0 -97 -39 -144 -130 -161 -45 -8 -138 9 -211 38 l-55 23 -22 -38 -22 -38 23 -16 c47 -30 144 -57 228 -62 115 -7 189 14 241 68 62 65 68 102 68 426 l0 283 -45 0 c-40 0 -45 -3 -50 -25 -3 -14 -7 -37 -11 -51 l-5 -27 -32 31 c-65 62 -202 97 -293 73z m216 -116 c19 -9 50 -31 68 -48 32 -31 32 -32 32 -124 l0 -93 -79 0 c-206 0 -300 55 -289 171 6 57 34 94 82 109 44 14 146 6 186 -15z"/>
 <path d="M4984 6461 c-51 -13 -134 -63 -165 -101 -81 -97 -112 -235 -86 -383 26 -147 99 -240 221 -281 94 -31 226 -16 295 33 l31 22 0 -230 0 -231 60 0 60 0 0 585 0 585 -50 0 -50 0 -6 -40 c-4 -22 -8 -40 -11 -40 -2 0 -21 14 -42 31 -64 51 -167 71 -257 50z m179 -102 c21 -6 56 -26 78 -46 l39 -35 0 -208 0 -208 -32 -28 c-48 -39 -96 -57 -158 -57 -171 0 -265 141 -239 358 10 79 32 128 79 175 55 55 145 74 233 49z"/>
 <path d="M2360 5944 l0 -516 213 4 c196 3 216 5 262 26 109 50 156 124 163 253 4 71 1 94 -16 132 -28 63 -94 132 -148 154 -24 10 -42 23 -40 29 3 7 63 104 135 217 72 113 131 208 131 212 0 3 -30 5 -67 3 l-67 -3 -126 -207 -125 -208 -102 0 -103 0 0 210 0 210 -55 0 -55 0 0 -516z m383 -20 c89 -30 146 -126 133 -223 -10 -75 -36 -113 -96 -143 -50 -26 -62 -28 -182 -28 l-128 0 0 205 0 205 113 0 c77 0 128 -5 160 -16z"/>
 </g>

</svg>